<?xml version="1.0" encoding="UTF-8" standalone="no"?>
<svg
   xmlns:dc="http://purl.org/dc/elements/1.1/"
   xmlns:cc="http://creativecommons.org/ns#"
   xmlns:rdf="http://www.w3.org/1999/02/22-rdf-syntax-ns#"
   xmlns:svg="http://www.w3.org/2000/svg"
   xmlns="http://www.w3.org/2000/svg"
   xmlns:sodipodi="http://sodipodi.sourceforge.net/DTD/sodipodi-0.dtd"
   xmlns:inkscape="http://www.inkscape.org/namespaces/inkscape"
   viewBox="0 0 128 128"
   width="64px"
   height="64px"
   version="1.1"
   id="svg12"
   sodipodi:docname="box.svg"
   inkscape:version="0.92.3 (2405546, 2018-03-11)">
  <metadata
     id="metadata18">
    <rdf:RDF>
      <cc:Work
         rdf:about="">
        <dc:format>image/svg+xml</dc:format>
        <dc:type
           rdf:resource="http://purl.org/dc/dcmitype/StillImage" />
      </cc:Work>
    </rdf:RDF>
  </metadata>
  <defs
     id="defs16" />
  <sodipodi:namedview
     pagecolor="#ffffff"
     bordercolor="#666666"
     borderopacity="1"
     objecttolerance="10"
     gridtolerance="10"
     guidetolerance="10"
     inkscape:pageopacity="0"
     inkscape:pageshadow="2"
     inkscape:window-width="1920"
     inkscape:window-height="1017"
     id="namedview14"
     showgrid="false"
     inkscape:zoom="7.2407734"
     inkscape:cx="26.741773"
     inkscape:cy="41.456894"
     inkscape:window-x="0"
     inkscape:window-y="30"
     inkscape:window-maximized="1"
     inkscape:current-layer="svg12" />
  <path
     d="M 124.23529,26.607843 64,5.2745098 3.764706,26.607843 V 101.90196 L 64,123.23529 124.23529,101.90196 Z"
     id="path2"
     inkscape:connector-curvature="0"
     style="fill:#ffffff;stroke-width:1.25490201" />
  <path
     d="M 124.23529,26.607843 64,5.2745098 3.764706,26.607843 V 101.90196 L 64,123.23529 124.23529,101.90196 Z m 0,0 L 64,5.2745098"
     id="path4"
     inkscape:connector-curvature="0"
     style="fill:#ffffff;stroke-width:1.25490201" />
  <path
     d="m 64,127 c -0.376471,0 -0.878431,-0.12549 -1.254902,-0.25098 L 2.509804,105.41569 C 1.003922,104.91373 0,103.40784 0,101.90196 V 26.607843 C 0,24.976471 1.003922,23.596078 2.509804,23.094118 L 62.745098,1.760784 c 2.007843,-0.752941 4.141177,0.376471 4.768627,2.2588238 0.752942,2.0078432 -0.37647,4.1411765 -2.258823,4.7686275 L 7.529412,29.243137 V 99.26667 l 57.72549,20.4549 c 2.007843,0.75294 3.011765,2.88627 2.258823,4.76863 C 67.011765,125.99608 65.505882,127 64,127 Z"
     id="path6"
     inkscape:connector-curvature="0"
     style="fill:#444b54;stroke-width:1.25490201" />
  <path
     d="M 124.23529,26.607843 64,5.2745098 M 124.23529,26.607843 64,5.2745098"
     id="path8"
     inkscape:connector-curvature="0"
     style="fill:#ffffff;stroke-width:1.25490201" />
  <path
     d="m 128,26.482353 c 0,-0.12549 0,-0.376471 0,-0.501961 0,0 0,-0.12549 0,-0.12549 C 127.74902,24.6 126.87059,23.470588 125.61569,23.094118 L 95.49804,12.427451 c 0,0 -0.12549,0 -0.12549,0 -0.75294,-0.25098 -1.75686,-0.376471 -2.6353,0 L 33.882353,33.133333 c -1.505882,0.501961 -2.509804,2.007843 -2.509804,3.513726 V 50.45098 c 0,2.133334 1.631373,3.764706 3.764706,3.764706 2.133333,0 3.764706,-1.631372 3.764706,-3.764706 V 39.282353 L 93.86667,19.831372 112.94118,26.607843 62.745098,44.427451 c -1.505882,0.501961 -2.509804,1.882353 -2.509804,3.513725 0,0 0,0 0,0.125491 V 118.0902 L 7.529412,99.26667 V 29.243137 L 65.254902,8.7882353 C 67.262745,8.0352941 68.266667,5.9019608 67.513725,4.0196078 66.760784,2.011765 64.627451,1.007843 62.745098,1.760784 L 2.509804,23.094118 C 1.003922,23.596078 0,25.101961 0,26.607843 v 75.294117 c 0,1.63137 1.003922,3.01177 2.509804,3.51373 l 60.235294,21.33333 c 0,0 0,0 0,0 C 63.121569,126.87451 63.623529,127 64,127 c 0.376471,0 0.878431,-0.12549 1.254902,-0.25098 L 125.4902,105.41569 C 126.99608,104.91373 128,103.40784 128,101.90196 V 26.482353 c 0,0.12549 0,0 0,0 z M 120.47059,99.26667 67.764706,117.96471 V 50.576471 l 52.705884,-18.69804 z"
     id="path10"
     inkscape:connector-curvature="0"
     style="fill:#808080;stroke-width:1.25490201" />
</svg>
