<svg width="128" height="86" viewBox="0 0 128 86" fill="none" xmlns="http://www.w3.org/2000/svg">
<path d="M103.2 32.2133C101.409 23.1345 96.5206 14.9592 89.371 9.08398C82.2215 3.20871 73.2539 -0.00209196 64 1.0226e-06C48.5867 1.0226e-06 35.2 8.74667 28.5333 21.5467C20.6946 22.3938 13.4454 26.1078 8.17861 31.975C2.91185 37.8423 -0.000915743 45.4489 2.15961e-07 53.3333C2.15961e-07 70.9867 14.3467 85.3333 32 85.3333H101.333C116.053 85.3333 128 73.3867 128 58.6667C128 44.5867 117.067 33.1733 103.2 32.2133ZM90.6667 48L64 74.6667L37.3333 48H53.3333V26.6667H74.6667V48H90.6667Z" fill="#F0F0F0"/>
</svg>
